# xmcd
#
# Track frame offsets: 
#        150
#        19175
#        39392
#        60630
#        80705
#        98702
#        114467
#        133220
#        165235
#        187387
#        202977
#        220877
#        241137
#
# Disc length: 3585 seconds
#
# Revision: 1
# Processed by: cddbd v1.5.2PL0 Copyright (c) Steve Scherf et al.
# Submitted via: ExactAudioCopy v0.99pb4
#
DISCID=b20dff0d
DTITLE=Frontline - Heroes
DYEAR=1997
DGENRE=Hard Rock
TTITLE0=Our Love
TTITLE1=Heroes
TTITLE2=Moving Closer
TTITLE3=Break My Heart Again
TTITLE4=On The Run
TTITLE5=Someone To Love
TTITLE6=Sign Of The Light
TTITLE7=Pain Will Last Forever
TTITLE8=Get To You
TTITLE9=I Must Be Dreaming
TTITLE10=All I Wanted
TTITLE11=Tonight We Set....
TTITLE12=Man In Motion
EXTD=
EXTT0=
EXTT1=
EXTT2=
EXTT3=
EXTT4=
EXTT5=
EXTT6=
EXTT7=
EXTT8=
EXTT9=
EXTT10=
EXTT11=
EXTT12=
PLAYORDER=
